# Blender v2.79 (sub 0) OBJ File: 'fleches.blend'
# www.blender.org
mtllib fleche-tout-droit.mtl
o Curve_CUpath845
v 327.190063 0.174814 21.864368
v 327.190063 0.174814 220.762817
v 311.625977 0.174814 220.762817
v 311.625977 0.174814 21.864368
v 284.331360 0.174814 21.864368
v 319.408020 0.174814 -179.237152
v 354.331360 0.174814 21.864368
v 327.190063 -0.174748 21.864368
v 327.190063 -0.174748 220.762817
v 311.625977 -0.174748 220.762817
v 311.625977 -0.174748 21.864368
v 284.331360 -0.174748 21.864368
v 319.408020 -0.174748 -179.237152
v 354.331360 -0.174748 21.864368
v 327.190063 -0.174748 21.864368
v 327.190063 0.174814 21.864368
v 327.190063 -0.174748 220.762817
v 327.190063 0.174814 220.762817
v 311.625977 -0.174748 220.762817
v 311.625977 0.174814 220.762817
v 311.625977 -0.174748 21.864368
v 311.625977 0.174814 21.864368
v 284.331360 -0.174748 21.864368
v 284.331360 0.174814 21.864368
v 319.408020 -0.174748 -179.237152
v 319.408020 0.174814 -179.237152
v 354.331360 -0.174748 21.864368
v 354.331360 0.174814 21.864368
vn 0.0000 1.0000 0.0000
vn 0.0000 0.0000 1.0000
vn 0.0000 -1.0000 0.0000
vn 0.0000 0.0000 -1.0000
vn 0.7071 0.0000 0.7071
vn -0.7071 0.0000 0.7071
vn -0.7654 0.0000 0.6435
vn 0.0004 0.0000 -1.0000
vn 0.7652 0.0000 0.6438
usemtl firstcolor
s off
f 5//1 7//1 6//1
f 4//2 7//2 5//2
f 3//1 1//1 4//1
f 1//2 7//2 4//2
f 3//1 2//1 1//1
f 14//3 12//3 13//3
f 14//4 11//4 12//4
f 8//3 10//3 11//3
f 14//2 8//2 11//2
f 9//3 10//3 8//3
s 1
f 16//5 18//5 17//5 15//5
f 18//5 20//6 19//6 17//5
f 20//6 22//6 21//6 19//6
f 22//6 24//7 23//7 21//6
f 24//7 26//8 25//8 23//7
f 26//8 28//9 27//9 25//8
f 28//9 16//5 15//5 27//9
